<?xml version="1.0" encoding="utf-8"?>
<!-- Generator: Adobe Illustrator 19.1.0, SVG Export Plug-In . SVG Version: 6.00 Build 0)  -->
<svg version="1.1" id="Calque_1" xmlns="http://www.w3.org/2000/svg" xmlns:xlink="http://www.w3.org/1999/xlink" x="0px" y="0px"
	 viewBox="0 0 205.3 147" style="enable-background:new 0 0 205.3 147;" xml:space="preserve">
<style type="text/css">
	.st0{opacity:0.6;fill:#46A685;}
	.st1{opacity:0.6;fill:#337D65;}
	.st2{opacity:0.6;fill:#363434;}
	.st3{fill:#292828;}
	.st4{fill:none;}
	.st5{fill:#337D65;}
	.st6{fill:#46A685;}
</style>
<path class="st0" d="M177.5,32h-47.2c-2.8,13.5-28.5,13.5-66,32.2c-10,5-26.1,3.2-38.2-1.4v29h43.8c38.2-10.5,84-32.1,107.6-54.8V32
	z"/>
<path class="st1" d="M46.2,35.6c4.3,5.5,17.1,10.4,1,17.4c-6.9,3-15.2,1-21.1-2.4v12.2c12.1,4.7,28.2,6.4,38.2,1.4
	c37.5-18.6,63.1-18.6,66-32.2H44.4C44.7,33.1,45.2,34.3,46.2,35.6z"/>
<path class="st2" d="M47.2,52.9c16.2-7,3.3-11.8-1-17.4c-1-1.3-1.6-2.5-1.9-3.6H26.1v18.5C32.1,53.9,40.3,55.9,47.2,52.9z"/>
<path class="st0" d="M177.5,75c-1.2-0.8-2.5-1.4-4-1.9c-15.7-5.2-31.3,4.3-49.9,11.9c-5.3,2.2-10.3,4.5-14.8,6.8h68.6V75z"/>
<g>
	<path class="st3" d="M38,103.8c1.9,0,4.8,0.5,7.7,2.6l-2,2.8c-2.3-1.7-5-1.8-5.5-1.8c-4.6,0-8.1,3.1-8.1,7.5c0,4.4,3.4,7.5,8.1,7.5
		c0.6,0,3.3,0,5.5-1.8l2,2.8c-2.9,2.1-5.8,2.6-7.7,2.6c-7.6,0-12.1-4.9-12.1-11C25.9,109,30.2,103.8,38,103.8z"/>
	<path class="st3" d="M77.7,122.2c-2.7,3.1-6.2,4-9.4,4c-7.5,0-12.1-5-12.1-11.1c0-6.3,4.9-11.3,11.6-11.3c5.7,0,11,3.7,11,11.6
		H60.4c-0.1,4.2,3.2,7.1,8,7.1c2.6,0,4.9-0.9,7-2.7L77.7,122.2z M60.7,112.2h13.7c-1.2-3.9-4.2-4.7-6.6-4.7
		C65.3,107.4,62.2,108.4,60.7,112.2z"/>
	<path class="st3" d="M106.3,113.9c0-4.6-2.1-6.1-4.4-6.1c-2.2,0-6.9,1.5-6.9,8.3v10h-4.2v-21.5H95v4.3c0.9-3.1,3.7-4.8,7.2-4.8
		c4.6,0,8.2,2.9,8.2,9.8V126h-4.2V113.9z"/>
	<path class="st3" d="M137.9,109.7c-0.7-1.9-2-2.4-3.4-2.4c-1.9,0-3.2,1.2-3.2,2.7c0,1.4,1.3,2.1,2.6,2.6l3.1,1
		c4.1,1.2,5.2,3.8,5.2,6.1c0,4.1-3.6,6.4-7.7,6.4c-3.8,0-7.3-1.9-8.3-5.6l3.7-0.9c0.5,1.7,2.4,3,4.6,3c2.1,0,3.7-1.2,3.7-2.9
		c0-1.5-1.2-2.2-2.7-2.7l-2.9-1c-3.4-1-5.3-2.9-5.3-5.8c0-3.7,2.8-6.4,7.1-6.4c3,0,6,1.2,7.2,5.1L137.9,109.7z"/>
	<path class="st3" d="M176.5,122.2c-2.7,3.1-6.2,4-9.4,4c-7.5,0-12.1-5-12.1-11.1c0-6.3,4.9-11.3,11.6-11.3c5.7,0,11,3.7,11,11.6
		h-18.3c-0.1,4.2,3.2,7.1,8,7.1c2.6,0,4.9-0.9,7-2.7L176.5,122.2z M159.5,112.2h13.7c-1.2-3.9-4.2-4.7-6.6-4.7
		C164.1,107.4,161,108.4,159.5,112.2z"/>
</g>
<path class="st4" d="M89,50.3c-4.2,0-7.6,3.4-7.6,7.6s3.4,7.6,7.6,7.6c4.2,0,7.6-3.4,7.6-7.6S93.2,50.3,89,50.3z"/>
<path class="st4" d="M158.5,65.1c-4.2,0-7.6,3.4-7.6,7.6s3.4,7.6,7.6,7.6s7.6-3.4,7.6-7.6S162.7,65.1,158.5,65.1z"/>
<path class="st4" d="M35.3,79.2c-4.2,0-7.6,3.4-7.6,7.6s3.4,7.6,7.6,7.6s7.6-3.4,7.6-7.6S39.5,79.2,35.3,79.2z"/>
<path class="st5" d="M115.8,20.2c-4.2,0-7.6,3.4-7.6,7.6c0,4.2,3.4,7.6,7.6,7.6c4.2,0,7.6-3.4,7.6-7.6
	C123.5,23.6,120.1,20.2,115.8,20.2z"/>
<path class="st4" d="M115.8,35.5c4.2,0,7.6-3.4,7.6-7.6c0-4.2-3.4-7.6-7.6-7.6c-4.2,0-7.6,3.4-7.6,7.6
	C108.2,32.1,111.6,35.5,115.8,35.5z"/>
<path class="st4" d="M89,50.3c-4.2,0-7.6,3.4-7.6,7.6s3.4,7.6,7.6,7.6c4.2,0,7.6-3.4,7.6-7.6S93.2,50.3,89,50.3z"/>
<path class="st4" d="M115.8,38.5c-2.2,0-4.2-0.7-5.9-1.8L97.1,51.1c1.6,1.8,2.5,4.2,2.5,6.8c0,0.2,0,0.5,0,0.7L148.5,69
	c0.4-1.1,0.9-2.1,1.6-2.9L122,36.5C120.3,37.7,118.1,38.5,115.8,38.5z"/>
<path class="st4" d="M158.5,65.1c-4.2,0-7.6,3.4-7.6,7.6s3.4,7.6,7.6,7.6s7.6-3.4,7.6-7.6S162.7,65.1,158.5,65.1z"/>
<path class="st6" d="M35.3,79.2c-4.2,0-7.6,3.4-7.6,7.6s3.4,7.6,7.6,7.6s7.6-3.4,7.6-7.6S39.5,79.2,35.3,79.2z"/>
<path class="st3" d="M158.5,62.1c-2.3,0-4.4,0.7-6.1,2l-28.1-29.6c1.4-1.8,2.3-4.1,2.3-6.6c0-5.9-4.8-10.6-10.6-10.6
	c-5.9,0-10.6,4.8-10.6,10.6c0,2.6,0.9,5,2.5,6.8L94.9,49.1c-1.7-1.1-3.7-1.8-5.9-1.8c-5.9,0-10.6,4.8-10.6,10.6
	c0,1.3,0.3,2.6,0.7,3.7L43.7,80.3c-1.9-2.5-5-4.1-8.4-4.1c-5.9,0-10.6,4.8-10.6,10.6s4.8,10.6,10.6,10.6s10.6-4.8,10.6-10.6
	c0-1.4-0.3-2.7-0.7-3.9l35.3-18.7c1.7,2.2,4.1,3.7,7,4.1v23.1h3V68.4c3.9-0.6,7.1-3.2,8.5-6.9L147.9,72c0,0.2,0,0.5,0,0.7
	c0,5.9,4.8,10.6,10.6,10.6s10.6-4.8,10.6-10.6S164.3,62.1,158.5,62.1z M35.3,94.4c-4.2,0-7.6-3.4-7.6-7.6s3.4-7.6,7.6-7.6
	s7.6,3.4,7.6,7.6S39.5,94.4,35.3,94.4z M89,65.5c-4.2,0-7.6-3.4-7.6-7.6s3.4-7.6,7.6-7.6c4.2,0,7.6,3.4,7.6,7.6S93.2,65.5,89,65.5z
	 M115.8,20.2c4.2,0,7.6,3.4,7.6,7.6c0,4.2-3.4,7.6-7.6,7.6c-4.2,0-7.6-3.4-7.6-7.6C108.2,23.6,111.6,20.2,115.8,20.2z M148.5,69
	L99.6,58.6c0-0.2,0-0.5,0-0.7c0-2.6-0.9-5-2.5-6.8L110,36.7c1.7,1.1,3.7,1.8,5.9,1.8c2.3,0,4.4-0.7,6.1-2l28.1,29.6
	C149.5,67,148.9,68,148.5,69z M158.5,80.3c-4.2,0-7.6-3.4-7.6-7.6s3.4-7.6,7.6-7.6s7.6,3.4,7.6,7.6S162.7,80.3,158.5,80.3z"/>
</svg>
